<svg width="33" height="33" viewBox="0 0 33 33" fill="none" xmlns="http://www.w3.org/2000/svg">
<path d="M2.10714 0.5H1.90004L1.75359 0.646447L0.646447 1.75359L0.5 1.90004V2.10714V30.8929V31.1L0.646447 31.2464L1.75359 32.3536L1.90004 32.5H2.10714H30.8929H31.1L31.2464 32.3536L32.3536 31.2464L32.5 31.1V30.8929V20.9286V20.4286H32H29.7857H29.2857V20.9286V29.2857H3.71429V3.71429H12.0714H12.5714V3.21429V1V0.5H12.0714H2.10714Z" fill="#228A43" stroke="#228A43"/>
<path d="M32.5 2.10714V1.90004L32.3536 1.75359L31.2464 0.646446L31.1 0.5H30.8929H16.5H16V1V3.21429V3.71429H16.5H27.0131L12.9047 17.8227L12.5514 18.176L12.9045 18.5295L14.47 20.0972L14.8236 20.4513L15.1774 20.0975L29.2857 5.98702V16.5V17H29.7857H32H32.5V16.5V2.10714Z" fill="#228A43" stroke="#228A43"/>
</svg>
