<svg width="27" height="30" viewBox="0 0 27 30" fill="none" xmlns="http://www.w3.org/2000/svg">
<path d="M23.3214 1H3.67857C2.96817 1 2.28686 1.31607 1.78454 1.87868C1.28221 2.44129 1 3.20435 1 4L1 26C1 26.7956 1.28221 27.5587 1.78454 28.1213C2.28686 28.6839 2.96817 29 3.67857 29H23.3214C24.0318 29 24.7131 28.6839 25.2155 28.1213C25.7178 27.5587 26 26.7956 26 26V4C26 3.20435 25.7178 2.44129 25.2155 1.87868C24.7131 1.31607 24.0318 1 23.3214 1V1ZM22.4068 20.2106L21.5698 24.2731C21.5272 24.4797 21.4235 24.664 21.2754 24.796C21.1274 24.928 20.9437 24.9999 20.7545 25C11.8259 25 4.57143 16.8931 4.57143 6.875C4.57807 6.66503 4.64471 6.463 4.76154 6.29862C4.87837 6.13425 5.03922 6.01621 5.22042 5.96187L8.84766 5.02437C8.90953 5.00972 8.97249 5.00156 9.03571 5C9.19758 5.00915 9.35431 5.06666 9.48963 5.16657C9.62495 5.26647 9.73393 5.40512 9.80525 5.56812L11.4794 9.94312C11.5204 10.0611 11.5432 10.186 11.5469 10.3125C11.5332 10.59 11.4231 10.8505 11.24 11.0381L9.12556 12.9756C10.4067 16.0168 12.5921 18.4645 15.3075 19.8994L17.0374 17.5312C17.2049 17.3262 17.4375 17.2028 17.6853 17.1875C17.7982 17.1916 17.9098 17.2171 18.0151 17.2631L21.9213 19.1381C22.0669 19.2179 22.1908 19.3399 22.28 19.4915C22.3692 19.6431 22.4205 19.8187 22.4286 20C22.4275 20.0708 22.4202 20.1414 22.4068 20.2106Z" stroke="#228A43" stroke-width="2"/>
</svg>
